{
	"asset":{
		"generator":"Khronos glTF Blender I/O v4.1.63",
		"version":"2.0"
	},
	"scene":0,
	"scenes":[
		{
			"name":"Scene",
			"nodes":[
				0
			]
		}
	],
	"nodes":[
		{
			"mesh":0,
			"name":"finger_l",
			"rotation":[
				0.5000001192092896,
				0.5,
				0.5,
				0.5
			]
		}
	],
	"materials":[
		{
			"doubleSided":true,
			"name":"Material.004",
			"pbrMetallicRoughness":{
				"baseColorFactor":[
					0.10000000149011612,
					0.10000000149011612,
					0.10000000149011612,
					1
				],
				"metallicFactor":0.10000000149011612,
				"roughnessFactor":0.5
			}
		}
	],
	"meshes":[
		{
			"name":"finger_l.001",
			"primitives":[
				{
					"attributes":{
						"POSITION":0,
						"NORMAL":1
					},
					"indices":2,
					"material":0
				}
			]
		}
	],
	"accessors":[
		{
			"bufferView":0,
			"componentType":5126,
			"count":4916,
			"max":[
				0.06000000610947609,
				0.013457059860229492,
				0.024586264044046402
			],
			"min":[
				-0.013457057066261768,
				-0.013457060791552067,
				0.0034112674184143543
			],
			"type":"VEC3"
		},
		{
			"bufferView":1,
			"componentType":5126,
			"count":4916,
			"type":"VEC3"
		},
		{
			"bufferView":2,
			"componentType":5123,
			"count":29277,
			"type":"SCALAR"
		}
	],
	"bufferViews":[
		{
			"buffer":0,
			"byteLength":58992,
			"byteOffset":0,
			"target":34962
		},
		{
			"buffer":0,
			"byteLength":58992,
			"byteOffset":58992,
			"target":34962
		},
		{
			"buffer":0,
			"byteLength":58554,
			"byteOffset":117984,
			"target":34963
		}
	],
	"buffers":[
		{
			"byteLength":176540,
			"uri":"finger_l.bin"
		}
	]
}
