{
	"asset":{
		"generator":"Khronos glTF Blender I/O v4.1.63",
		"version":"2.0"
	},
	"scene":0,
	"scenes":[
		{
			"name":"Scene",
			"nodes":[
				0
			]
		}
	],
	"nodes":[
		{
			"mesh":0,
			"name":"finger_l",
			"rotation":[
				0.7071068286895752,
				0,
				0,
				0.7071068286895752
			],
			"translation":[
				0,
				-0.0010999999940395355,
				0
			]
		}
	],
	"meshes":[
		{
			"name":"finger_l",
			"primitives":[
				{
					"attributes":{
						"POSITION":0,
						"NORMAL":1
					},
					"indices":2
				}
			]
		}
	],
	"accessors":[
		{
			"bufferView":0,
			"componentType":5126,
			"count":4885,
			"max":[
				0.06000000610947609,
				0.013457059860229492,
				0.023486264050006866
			],
			"min":[
				-0.013457057066261768,
				-0.013457060791552067,
				0.002311267424374819
			],
			"type":"VEC3"
		},
		{
			"bufferView":1,
			"componentType":5126,
			"count":4885,
			"type":"VEC3"
		},
		{
			"bufferView":2,
			"componentType":5123,
			"count":29277,
			"type":"SCALAR"
		}
	],
	"bufferViews":[
		{
			"buffer":0,
			"byteLength":58620,
			"byteOffset":0,
			"target":34962
		},
		{
			"buffer":0,
			"byteLength":58620,
			"byteOffset":58620,
			"target":34962
		},
		{
			"buffer":0,
			"byteLength":58554,
			"byteOffset":117240,
			"target":34963
		}
	],
	"buffers":[
		{
			"byteLength":175796,
			"uri":"finger_l.bin"
		}
	]
}
