{
	"asset":{
		"generator":"Khronos glTF Blender I/O v4.1.63",
		"version":"2.0"
	},
	"scene":0,
	"scenes":[
		{
			"name":"Scene",
			"nodes":[
				0
			]
		}
	],
	"nodes":[
		{
			"mesh":0,
			"name":"finger_r",
			"rotation":[
				0,
				0,
				0.7071068286895752,
				0.7071068286895752
			]
		}
	],
	"materials":[
		{
			"doubleSided":true,
			"name":"Material.001",
			"pbrMetallicRoughness":{
				"baseColorFactor":[
					0.10000000149011612,
					0.10000000149011612,
					0.10000000149011612,
					1
				],
				"metallicFactor":0.10000000149011612,
				"roughnessFactor":0.5
			}
		}
	],
	"meshes":[
		{
			"name":"finger_r",
			"primitives":[
				{
					"attributes":{
						"POSITION":0,
						"NORMAL":1
					},
					"indices":2,
					"material":0
				}
			]
		}
	],
	"accessors":[
		{
			"bufferView":0,
			"componentType":5126,
			"count":5006,
			"max":[
				0.06000000610947609,
				0.01348972786217928,
				0.024586262181401253
			],
			"min":[
				-0.013489735312759876,
				-0.013489728793501854,
				0.0034112646244466305
			],
			"type":"VEC3"
		},
		{
			"bufferView":1,
			"componentType":5126,
			"count":5006,
			"type":"VEC3"
		},
		{
			"bufferView":2,
			"componentType":5123,
			"count":29877,
			"type":"SCALAR"
		}
	],
	"bufferViews":[
		{
			"buffer":0,
			"byteLength":60072,
			"byteOffset":0,
			"target":34962
		},
		{
			"buffer":0,
			"byteLength":60072,
			"byteOffset":60072,
			"target":34962
		},
		{
			"buffer":0,
			"byteLength":59754,
			"byteOffset":120144,
			"target":34963
		}
	],
	"buffers":[
		{
			"byteLength":179900,
			"uri":"finger_r.bin"
		}
	]
}
