{
	"asset":{
		"generator":"Khronos glTF Blender I/O v4.1.63",
		"version":"2.0"
	},
	"scene":0,
	"scenes":[
		{
			"name":"Scene",
			"nodes":[
				0
			]
		}
	],
	"nodes":[
		{
			"mesh":0,
			"name":"finger_r",
			"rotation":[
				0.7071068286895752,
				0,
				0,
				0.7071068286895752
			]
		}
	],
	"meshes":[
		{
			"name":"finger_r",
			"primitives":[
				{
					"attributes":{
						"POSITION":0,
						"NORMAL":1
					},
					"indices":2
				}
			]
		}
	],
	"accessors":[
		{
			"bufferView":0,
			"componentType":5126,
			"count":4984,
			"max":[
				0.06000000610947609,
				0.01348972786217928,
				0.024586262181401253
			],
			"min":[
				-0.013489735312759876,
				-0.013489728793501854,
				0.0034112646244466305
			],
			"type":"VEC3"
		},
		{
			"bufferView":1,
			"componentType":5126,
			"count":4984,
			"type":"VEC3"
		},
		{
			"bufferView":2,
			"componentType":5123,
			"count":29877,
			"type":"SCALAR"
		}
	],
	"bufferViews":[
		{
			"buffer":0,
			"byteLength":59808,
			"byteOffset":0,
			"target":34962
		},
		{
			"buffer":0,
			"byteLength":59808,
			"byteOffset":59808,
			"target":34962
		},
		{
			"buffer":0,
			"byteLength":59754,
			"byteOffset":119616,
			"target":34963
		}
	],
	"buffers":[
		{
			"byteLength":179372,
			"uri":"finger_r.bin"
		}
	]
}
