{
	"asset":{
		"generator":"Khronos glTF Blender I/O v4.1.63",
		"version":"2.0"
	},
	"scene":0,
	"scenes":[
		{
			"name":"Scene",
			"nodes":[
				0
			]
		}
	],
	"nodes":[
		{
			"mesh":0,
			"name":"link_1",
			"rotation":[
				0.5000000596046448,
				-0.4999999403953552,
				0.5000000596046448,
				0.4999999403953552
			]
		}
	],
	"materials":[
		{
			"doubleSided":true,
			"name":"Material.002",
			"pbrMetallicRoughness":{
				"baseColorFactor":[
					0.09999974071979523,
					0.10000000149011612,
					0.10000000149011612,
					1
				],
				"metallicFactor":0.10000000149011612,
				"roughnessFactor":0.5
			}
		}
	],
	"meshes":[
		{
			"name":"link_1",
			"primitives":[
				{
					"attributes":{
						"POSITION":0,
						"NORMAL":1
					},
					"indices":2,
					"material":0
				}
			]
		}
	],
	"accessors":[
		{
			"bufferView":0,
			"componentType":5126,
			"count":8904,
			"max":[
				0.042500000447034836,
				0.042500000447034836,
				-2.60770320892334e-08
			],
			"min":[
				-0.042500000447034836,
				-0.042500000447034836,
				-0.06650001555681229
			],
			"type":"VEC3"
		},
		{
			"bufferView":1,
			"componentType":5126,
			"count":8904,
			"type":"VEC3"
		},
		{
			"bufferView":2,
			"componentType":5123,
			"count":53031,
			"type":"SCALAR"
		}
	],
	"bufferViews":[
		{
			"buffer":0,
			"byteLength":106848,
			"byteOffset":0,
			"target":34962
		},
		{
			"buffer":0,
			"byteLength":106848,
			"byteOffset":106848,
			"target":34962
		},
		{
			"buffer":0,
			"byteLength":106062,
			"byteOffset":213696,
			"target":34963
		}
	],
	"buffers":[
		{
			"byteLength":319760,
			"uri":"link_1.bin"
		}
	]
}
