{
	"asset":{
		"generator":"Khronos glTF Blender I/O v4.1.63",
		"version":"2.0"
	},
	"scene":0,
	"scenes":[
		{
			"name":"Scene",
			"nodes":[
				0
			]
		}
	],
	"nodes":[
		{
			"mesh":0,
			"name":"link_4_4dof",
			"rotation":[
				0.7071068286895752,
				0,
				0,
				0.7071068286895752
			]
		}
	],
	"meshes":[
		{
			"name":"link_4_4dof",
			"primitives":[
				{
					"attributes":{
						"POSITION":0,
						"NORMAL":1
					},
					"indices":2
				}
			]
		}
	],
	"accessors":[
		{
			"bufferView":0,
			"componentType":5126,
			"count":11893,
			"max":[
				0.06349999457597733,
				0.026399899274110794,
				0.019049998372793198
			],
			"min":[
				-0.012699998915195465,
				-0.02579990029335022,
				-0.019062507897615433
			],
			"type":"VEC3"
		},
		{
			"bufferView":1,
			"componentType":5126,
			"count":11893,
			"type":"VEC3"
		},
		{
			"bufferView":2,
			"componentType":5123,
			"count":71814,
			"type":"SCALAR"
		}
	],
	"bufferViews":[
		{
			"buffer":0,
			"byteLength":142716,
			"byteOffset":0,
			"target":34962
		},
		{
			"buffer":0,
			"byteLength":142716,
			"byteOffset":142716,
			"target":34962
		},
		{
			"buffer":0,
			"byteLength":143628,
			"byteOffset":285432,
			"target":34963
		}
	],
	"buffers":[
		{
			"byteLength":429060,
			"uri":"link_4.bin"
		}
	]
}
