{
	"asset":{
		"generator":"Khronos glTF Blender I/O v4.1.63",
		"version":"2.0"
	},
	"scene":0,
	"scenes":[
		{
			"name":"Scene",
			"nodes":[
				0
			]
		}
	],
	"nodes":[
		{
			"mesh":0,
			"name":"link_3",
			"rotation":[
				0.11658456176519394,
				-0.11658447980880737,
				0.6974295973777771,
				0.6974295973777771
			]
		}
	],
	"materials":[
		{
			"doubleSided":true,
			"name":"Material.001",
			"pbrMetallicRoughness":{
				"baseColorFactor":[
					0.10000000149011612,
					0.10000000149011612,
					0.10000000149011612,
					1
				],
				"metallicFactor":0.10000000149011612,
				"roughnessFactor":0.5
			}
		}
	],
	"meshes":[
		{
			"name":"link_3",
			"primitives":[
				{
					"attributes":{
						"POSITION":0,
						"NORMAL":1
					},
					"indices":2,
					"material":0
				}
			]
		}
	],
	"accessors":[
		{
			"bufferView":0,
			"componentType":5126,
			"count":14030,
			"max":[
				0.16955961287021637,
				0.02629989944398403,
				0.012626193463802338
			],
			"min":[
				-0.012626194395124912,
				-0.025899900123476982,
				-0.06851799041032791
			],
			"type":"VEC3"
		},
		{
			"bufferView":1,
			"componentType":5126,
			"count":14030,
			"type":"VEC3"
		},
		{
			"bufferView":2,
			"componentType":5123,
			"count":83994,
			"type":"SCALAR"
		}
	],
	"bufferViews":[
		{
			"buffer":0,
			"byteLength":168360,
			"byteOffset":0,
			"target":34962
		},
		{
			"buffer":0,
			"byteLength":168360,
			"byteOffset":168360,
			"target":34962
		},
		{
			"buffer":0,
			"byteLength":167988,
			"byteOffset":336720,
			"target":34963
		}
	],
	"buffers":[
		{
			"byteLength":504708,
			"uri":"link_3.bin"
		}
	]
}
