{
	"asset":{
		"generator":"Khronos glTF Blender I/O v4.1.63",
		"version":"2.0"
	},
	"scene":0,
	"scenes":[
		{
			"name":"Scene",
			"nodes":[
				0
			]
		}
	],
	"nodes":[
		{
			"mesh":0,
			"name":"link_0"
		}
	],
	"meshes":[
		{
			"name":"link_0",
			"primitives":[
				{
					"attributes":{
						"POSITION":0,
						"NORMAL":1
					},
					"indices":2
				}
			]
		}
	],
	"accessors":[
		{
			"bufferView":0,
			"componentType":5126,
			"count":11200,
			"max":[
				0.0514279268682003,
				0.1509999930858612,
				0.049932919442653656
			],
			"min":[
				-0.04615054279565811,
				0.10499999672174454,
				-0.049932919442653656
			],
			"type":"VEC3"
		},
		{
			"bufferView":1,
			"componentType":5126,
			"count":11200,
			"type":"VEC3"
		},
		{
			"bufferView":2,
			"componentType":5123,
			"count":66714,
			"type":"SCALAR"
		}
	],
	"bufferViews":[
		{
			"buffer":0,
			"byteLength":134400,
			"byteOffset":0,
			"target":34962
		},
		{
			"buffer":0,
			"byteLength":134400,
			"byteOffset":134400,
			"target":34962
		},
		{
			"buffer":0,
			"byteLength":133428,
			"byteOffset":268800,
			"target":34963
		}
	],
	"buffers":[
		{
			"byteLength":402228,
			"uri":"link_0.bin"
		}
	]
}
