{
	"asset":{
		"generator":"Khronos glTF Blender I/O v4.1.63",
		"version":"2.0"
	},
	"scene":0,
	"scenes":[
		{
			"name":"Scene",
			"nodes":[
				0
			]
		}
	],
	"nodes":[
		{
			"mesh":0,
			"name":"link_0",
			"rotation":[
				0,
				-0.7071068286895752,
				0,
				0.7071068286895752
			]
		}
	],
	"materials":[
		{
			"doubleSided":true,
			"name":"Material.001",
			"pbrMetallicRoughness":{
				"baseColorFactor":[
					0.10000000149011612,
					0.10000000149011612,
					0.10000000149011612,
					1
				],
				"metallicFactor":0.10000000149011612,
				"roughnessFactor":0.5
			}
		}
	],
	"meshes":[
		{
			"name":"link_0",
			"primitives":[
				{
					"attributes":{
						"POSITION":0,
						"NORMAL":1
					},
					"indices":2,
					"material":0
				}
			]
		}
	],
	"accessors":[
		{
			"bufferView":0,
			"componentType":5126,
			"count":11210,
			"max":[
				0.0514279268682003,
				0.04599999636411667,
				0.049932919442653656
			],
			"min":[
				-0.04615054279565811,
				0,
				-0.049932919442653656
			],
			"type":"VEC3"
		},
		{
			"bufferView":1,
			"componentType":5126,
			"count":11210,
			"type":"VEC3"
		},
		{
			"bufferView":2,
			"componentType":5123,
			"count":66714,
			"type":"SCALAR"
		}
	],
	"bufferViews":[
		{
			"buffer":0,
			"byteLength":134520,
			"byteOffset":0,
			"target":34962
		},
		{
			"buffer":0,
			"byteLength":134520,
			"byteOffset":134520,
			"target":34962
		},
		{
			"buffer":0,
			"byteLength":133428,
			"byteOffset":269040,
			"target":34963
		}
	],
	"buffers":[
		{
			"byteLength":402468,
			"uri":"link_0.bin"
		}
	]
}
