{
	"asset":{
		"generator":"Khronos glTF Blender I/O v4.1.63",
		"version":"2.0"
	},
	"scene":0,
	"scenes":[
		{
			"name":"Scene",
			"nodes":[
				0
			]
		}
	],
	"nodes":[
		{
			"mesh":0,
			"name":"link_2",
			"rotation":[
				0.7032331824302673,
				-0.7032331824302673,
				0.07391276210546494,
				0.07391270250082016
			]
		}
	],
	"materials":[
		{
			"doubleSided":true,
			"name":"Material.001",
			"pbrMetallicRoughness":{
				"baseColorFactor":[
					0.10000000149011612,
					0.10000000149011612,
					0.10000000149011612,
					1
				],
				"metallicFactor":0.10000000149011612,
				"roughnessFactor":0.5
			}
		}
	],
	"meshes":[
		{
			"name":"link_2",
			"primitives":[
				{
					"attributes":{
						"POSITION":0,
						"NORMAL":1
					},
					"indices":2,
					"material":0
				}
			]
		}
	],
	"accessors":[
		{
			"bufferView":0,
			"componentType":5126,
			"count":14798,
			"max":[
				0.012698429636657238,
				0.02619990147650242,
				0.012698431499302387
			],
			"min":[
				-0.1492767333984375,
				-0.025999899953603745,
				-0.06786400079727173
			],
			"type":"VEC3"
		},
		{
			"bufferView":1,
			"componentType":5126,
			"count":14798,
			"type":"VEC3"
		},
		{
			"bufferView":2,
			"componentType":5123,
			"count":88704,
			"type":"SCALAR"
		}
	],
	"bufferViews":[
		{
			"buffer":0,
			"byteLength":177576,
			"byteOffset":0,
			"target":34962
		},
		{
			"buffer":0,
			"byteLength":177576,
			"byteOffset":177576,
			"target":34962
		},
		{
			"buffer":0,
			"byteLength":177408,
			"byteOffset":355152,
			"target":34963
		}
	],
	"buffers":[
		{
			"byteLength":532560,
			"uri":"link_2.bin"
		}
	]
}
