{
	"asset":{
		"generator":"Khronos glTF Blender I/O v4.1.63",
		"version":"2.0"
	},
	"scene":0,
	"scenes":[
		{
			"name":"Scene",
			"nodes":[
				0
			]
		}
	],
	"nodes":[
		{
			"mesh":0,
			"name":"lss_base"
		}
	],
	"meshes":[
		{
			"name":"lss_base",
			"primitives":[
				{
					"attributes":{
						"POSITION":0,
						"NORMAL":1
					},
					"indices":2
				}
			]
		}
	],
	"accessors":[
		{
			"bufferView":0,
			"componentType":5126,
			"count":579924,
			"max":[
				0.05214504897594452,
				0.14022612571716309,
				0.13470059633255005
			],
			"min":[
				-0.19785495102405548,
				-0.009843863546848297,
				-0.1352914571762085
			],
			"type":"VEC3"
		},
		{
			"bufferView":1,
			"componentType":5126,
			"count":579924,
			"type":"VEC3"
		},
		{
			"bufferView":2,
			"componentType":5125,
			"count":786168,
			"type":"SCALAR"
		}
	],
	"bufferViews":[
		{
			"buffer":0,
			"byteLength":6959088,
			"byteOffset":0,
			"target":34962
		},
		{
			"buffer":0,
			"byteLength":6959088,
			"byteOffset":6959088,
			"target":34962
		},
		{
			"buffer":0,
			"byteLength":3144672,
			"byteOffset":13918176,
			"target":34963
		}
	],
	"buffers":[
		{
			"byteLength":17062848,
			"uri":"lss_base.bin"
		}
	]
}
